PathFileType	4	(X/Y/Z)	C:\Users\°ÂÌØÂü\Desktop\20201223\Trimmed_Trimmed_bx_y_10_501.trc
DataRate	CameraRate	NumFrames	NumMarkers	Units	OrigDataRate	OrigDataStartFrame	OrigNumFrames
50.00	50.00	      5	43	mm	50.00	1258	      1437
Frame#	Time	Top.Head			R.Acromium			L.Acromium			Sternum			R.ASIS			L.ASIS			V.Sacral			R.Thigh.Upper			R.Thigh.Front			R.Thigh.Rear			R.Knee.Lat			R.Knee.Med			R.Shank.Upper			R.Shank.Front			R.Shank.Rear			R.Ankle.Lat			R.Midfoot.Lat			R.Toe.Lat			R.Toe.Tip			R.Toe.Med			R.Ankle.Med			R.Midfoot.Sup			R.Heel			L.Thigh.Upper			L.Thigh.Front			L.Thigh.Rear			L.Knee.Lat			L.Knee.Med			L.Shank.Upper			L.Shank.Front			L.Shank.Rear			L.Ankle.Lat			L.Midfoot.Lat			L.Toe.Lat			L.Toe.Tip			L.Toe.Med			L.Ankle.Med			L.Midfoot.Sup			L.Heel			origin1 front left			origin2 front right			origin 3 back right			origin 4 back leftt			
		X1	Y1	Z1	X2	Y2	Z2	X3	Y3	Z3	X4	Y4	Z4	X5	Y5	Z5	X6	Y6	Z6	X7	Y7	Z7	X8	Y8	Z8	X9	Y9	Z9	X10	Y10	Z10	X11	Y11	Z11	X12	Y12	Z12	X13	Y13	Z13	X14	Y14	Z14	X15	Y15	Z15	X16	Y16	Z16	X17	Y17	Z17	X18	Y18	Z18	X19	Y19	Z19	X20	Y20	Z20	X21	Y21	Z21	X22	Y22	Z22	X23	Y23	Z23	X24	Y24	Z24	X25	Y25	Z25	X26	Y26	Z26	X27	Y27	Z27	X28	Y28	Z28	X29	Y29	Z29	X30	Y30	Z30	X31	Y31	Z31	X32	Y32	Z32	X33	Y33	Z33	X34	Y34	Z34	X35	Y35	Z35	X36	Y36	Z36	X37	Y37	Z37	X38	Y38	Z38	X39	Y39	Z39	X40	Y40	Z40	X41	Y41	Z41	X42	Y42	Z42	X43	Y43	Z43	

1258	25.140	-181.74530	270.27414	1419.80249	-351.97278	84.06017	1189.25562	-357.06470	435.32416	1178.19983	-422.13953	245.34436	1135.88684	-736.31537	150.57381	1007.20996	-739.98383	380.68649	1027.73901	-909.68140	251.68835	1083.82788	-778.75677	94.28479	874.30432	-720.18054	150.67708	830.04590	-807.29901	86.56340	726.43335	-778.96130	120.43351	590.12451	-752.34088	227.69589	548.41644	-794.45239	119.03526	519.40027	-714.48804	168.82298	543.47296	-810.94629	120.61070	444.06036	-697.10547	137.66837	209.64206	-617.88562	74.42664	164.85716	-573.15643	47.34071	158.69833	-495.39511	94.35435	161.59001	-534.73724	142.94794	166.27304	-647.30261	211.03081	228.01523	-595.95367	184.33633	176.73372	-719.91412	208.62433	169.13951	-771.68878	442.15826	863.55206	-714.35809	383.62131	824.63824	-793.66034	452.94199	727.92841	-789.24622	421.64355	603.72058	-740.69641	317.48486	562.72491	-778.96692	418.99591	543.71906	-720.30481	377.25519	537.09473	-813.61249	425.02411	479.05136	-688.72986	420.68619	208.70833	-585.32251	470.78357	162.54237	-545.87213	481.12457	157.27127	-489.96759	427.12338	167.16756	-527.51093	389.41791	177.24324	-650.65076	332.70557	211.84424	-595.03778	351.20908	173.43140	-732.21057	346.84009	165.47125	-443.58752	449.11417	146.83124	-450.56262	75.24899	144.61510	-806.29376	82.69247	142.56970	-799.44519	457.69574	145.68820	
1259	25.160	-179.51758	270.86252	1415.12793	-350.56839	83.95983	1185.36218	-355.38062	434.91928	1174.51135	-421.30145	245.45023	1134.26550	-736.09515	150.69333	1006.76892	-740.15094	380.60095	1027.62000	-909.13562	251.87674	1084.28882	-778.82605	94.36183	874.29999	-720.13708	150.81824	829.91888	-807.45520	86.88337	726.12659	-778.93079	120.55537	590.08368	-752.35187	227.69879	548.32855	-794.51752	119.16679	519.33606	-714.49738	168.83910	543.43512	-810.98651	120.66823	444.06534	-697.10828	137.71004	209.62013	-617.91626	74.43755	164.87254	-573.17950	47.35008	158.73042	-495.40106	94.34498	161.62614	-534.75378	142.92390	166.29163	-647.32703	211.13188	227.91057	-595.95740	184.39642	176.82784	-719.90454	208.74548	169.14069	-771.54382	442.47049	863.45697	-714.34308	383.80011	824.48370	-793.79742	453.17026	727.88855	-789.19495	421.88071	603.77911	-740.83563	317.72263	562.57227	-778.84680	419.07397	543.87775	-720.16034	377.42770	537.05054	-813.35449	425.49017	479.00079	-688.72681	420.77936	208.72697	-585.30170	470.74380	162.53180	-545.87994	481.11411	157.29976	-490.02322	427.09180	167.13824	-527.52380	389.36368	177.21074	-650.52618	332.57965	212.27658	-595.12634	351.25067	173.41696	-732.18146	346.92862	165.44202	-443.63098	449.15820	146.85565	-450.55313	75.20228	144.58128	-806.30011	82.70002	142.55347	-799.46112	457.71487	145.68422	
1260	25.180	-177.25366	271.67761	1410.53223	-349.11511	83.72980	1181.77344	-353.56223	434.38095	1170.90637	-420.52008	245.56303	1132.78857	-735.89941	150.68541	1006.32782	-740.22443	380.50150	1027.52002	-908.48834	252.05029	1084.72681	-778.82190	94.39720	874.24408	-720.09100	150.88791	829.78949	-807.57605	87.10009	725.92859	-778.86902	120.64740	590.00958	-752.34375	227.63754	548.21234	-794.53125	119.26353	519.26038	-714.48242	168.81453	543.37738	-811.02747	120.72542	444.07574	-697.09979	137.73320	209.61411	-617.92645	74.46152	164.88571	-573.21387	47.42242	158.72134	-495.40588	94.30108	161.64977	-534.75970	142.90706	166.28960	-647.25311	211.17862	227.80058	-595.93512	184.44496	176.90329	-719.94659	208.77400	169.19359	-771.32056	442.67316	863.42767	-714.22638	383.79129	824.32550	-793.79364	453.23557	727.78217	-789.05206	422.13950	603.90491	-740.90491	317.84470	562.52008	-778.64771	419.20642	544.16498	-719.86133	377.58069	536.86218	-813.08917	425.94696	479.16022	-688.72815	420.93933	208.79366	-585.28271	470.71542	162.50011	-545.88959	481.11447	157.30214	-490.09747	427.05423	167.08786	-527.49707	389.34073	177.19214	-650.40100	332.43472	212.73811	-595.19153	351.30035	173.41776	-732.20050	347.08228	165.36142	-443.66010	449.22678	146.87994	-450.53986	75.15300	144.54063	-806.29169	82.68658	142.56390	-799.44769	457.72794	145.68019	
1261	25.200	-175.00732	272.59167	1406.08984	-347.59979	83.44464	1178.41223	-351.69312	433.78125	1167.27930	-419.79507	245.68248	1131.45605	-735.66956	150.55695	1005.85944	-740.20587	380.38885	1027.43872	-907.69568	252.23329	1085.16125	-778.77649	94.37807	874.18188	-720.06238	150.89775	829.62360	-807.67139	87.18058	725.85834	-778.82043	120.64413	589.95056	-752.28864	227.47652	548.12445	-794.53424	119.29430	519.16956	-714.46027	168.75862	543.30231	-811.06873	120.74911	444.05872	-697.11310	137.71007	209.61435	-617.92468	74.46218	164.88077	-573.24408	47.51213	158.68752	-495.43869	94.25850	161.65471	-534.76776	142.89220	166.27345	-647.19153	211.16522	227.71828	-595.91431	184.46402	176.95682	-720.05438	208.66917	169.32973	-771.03772	442.73959	863.41956	-714.02234	383.69989	824.21448	-793.65686	453.17270	727.58948	-788.87091	422.39957	604.03839	-740.96106	317.91254	562.50342	-778.47803	419.43082	544.59357	-719.51971	377.73843	536.59888	-812.87952	426.35410	479.38950	-688.74261	421.13190	208.88892	-585.26617	470.71735	162.44069	-545.88177	481.13788	157.26892	-490.17303	426.99338	167.01799	-527.46710	389.34595	177.20567	-650.28760	332.28983	213.17688	-595.23627	351.34744	173.43430	-732.29028	347.28467	165.23175	-443.67224	449.29529	146.88560	-450.53452	75.12720	144.50008	-806.28186	82.68340	142.57608	-799.40540	457.73340	145.67165	
1262	25.220	-172.78839	273.41977	1401.86890	-346.05933	83.18593	1175.26489	-349.92542	433.21768	1163.61865	-419.12628	245.80823	1130.26746	-735.33325	150.37001	1005.40381	-740.09686	380.26389	1027.37610	-906.78564	252.40503	1085.61023	-778.68311	94.29399	874.14093	-720.02576	150.85640	829.40533	-807.72974	87.12669	725.90906	-778.79706	120.53084	589.94281	-752.15271	227.23776	548.09558	-794.56042	119.26363	519.08118	-714.41150	168.67015	543.22998	-811.10291	120.71998	444.00916	-697.15723	137.64975	209.62621	-617.91986	74.42327	164.85382	-573.25964	47.55276	158.66652	-495.51270	94.25182	161.65489	-534.78137	142.86757	166.25438	-647.21155	211.13069	227.67245	-595.92413	184.44479	176.99075	-720.24451	208.42755	169.57745	-770.70178	442.70099	863.37891	-713.76251	383.62915	824.12939	-793.42114	453.02194	727.31616	-788.71619	422.62112	604.11719	-741.04163	317.98367	562.48492	-778.37885	419.73764	544.97070	-719.26117	377.90143	536.38983	-812.77655	426.66888	479.57535	-688.76746	421.28976	208.96979	-585.25470	470.74786	162.37709	-545.84491	481.18787	157.21100	-490.24683	426.90408	166.95840	-527.48486	389.37939	177.24249	-650.19666	332.16299	213.54575	-595.28174	351.39328	173.45955	-732.42230	347.50253	165.07063	-443.66736	449.31577	146.87007	-450.55783	75.15403	144.47125	-806.27704	82.69728	142.57954	-799.35022	457.72528	145.66957	
